<svg version="1" xmlns="http://www.w3.org/2000/svg" width="933.333" height="933.333" viewBox="0 0 700.000000 700.000000"><path d="M336.9 1.5c-.2.2-4.7.6-9.9.9-5.2.4-10.6.9-12 1.1-1.4.2-4.5.7-7 1-11.8 1.6-25.8 4.2-35.5 6.7-4.4 1.1-8.7 2.1-9.5 2.3-3.6.7-10.9 2.9-22.1 6.5-52.6 17.2-101.3 46.8-138.9 84.2-13.4 13.4-24.3 25.5-28.9 32.2-.8 1.2-1.7 2.3-2.1 2.6-2.8 2.4-18.8 26.4-26.3 39.6C27 209.3 9.9 257 5.4 287.8c-.3 2-.7 4.3-.9 5-.3.7-.7 4-1.1 7.5-.3 3.4-.8 6.4-.9 6.7-1 1.7-2 22.5-2 41 0 19.2.7 32.5 1.9 40 .3 1.4.7 4.9 1 7.9.4 2.9.8 5.6 1 6 .2.3.6 2.9 1 5.8.3 2.8.8 5.7 1.1 6.5.2.7.6 2.4.9 3.8 4.4 24.9 17.7 62.9 31.7 89.8 11.8 22.9 29.1 48.8 45.4 67.9 6.9 8.1 34.1 35.1 39.5 39.3 2.5 1.9 4.7 3.7 5 4.1 1.2 1.6 18.7 14.4 28.1 20.7 21.4 14.2 37.4 22.5 66.4 34.7 9.7 4.1 39.6 13.4 47.7 14.9 1.5.2 3.1.7 3.5.9.5.3 2.4.8 4.3 1.1 1.9.3 5.8 1 8.7 1.5 2.9.6 7.4 1.3 10 1.7 2.6.3 5.7.8 6.8 1 1.1.3 8.5 1.1 16.5 1.9 13.9 1.3 57.5 1.5 61 .2.8-.3 4.9-.9 9-1.2 23.6-1.9 56-9.7 85.7-20.7l5.3-1.9-1.5-2.8c-.7-1.5-3.2-7.5-5.5-13.2-2.3-5.7-4.7-11.8-5.4-13.4-.8-1.7-7.3-17.9-14.6-36-7.2-18.2-13.8-34.4-14.5-36-.8-1.7-3.6-8.6-6.3-15.5-2.8-6.9-8-19.9-11.7-29-3.7-9.1-9.4-23.3-12.7-31.5-3.3-8.3-6.6-16.4-7.3-18-.7-1.7-2.2-5.5-3.4-8.5-1.2-3-2.6-6.4-3-7.5-.5-1.1-2.2-5.4-3.9-9.5-1.7-4.1-4.8-12-7.1-17.5-7-17.4-32.2-79.8-34.2-84.9-1.9-4.6-1.9-4.8-.2-4.3 1.4.4 63.8 26.8 74.8 31.6 5.6 2.5 13.1 5.7 62.5 26.6 68.3 29 84.3 35.8 96 40.7 5.2 2.2 10.9 4.6 12.5 5.3 1.7.8 12.2 5.2 23.5 10s22.4 9.5 24.7 10.6c2.4 1 4.5 1.9 4.8 1.9.2 0 2.8 1.1 5.7 2.4 11.6 5.3 19.8 8.4 20.3 7.7.6-1 6.5-17.8 7.1-20 .2-.9 1.5-5.4 2.9-10.1 1.4-4.7 2.8-9.9 3.1-11.5.3-1.7 1.1-5.5 1.8-8.5 2.7-10.9 4.8-23 7.3-43 2.1-16.9 2.3-63.1.4-79.5-.7-6.1-1.4-12.4-1.6-14-.3-2.5-1.3-8.6-2.9-18-1.2-6.6-4-19-5.7-25.5-1.2-4.1-2.4-8.9-2.9-10.5-7.9-29.9-26.2-69.3-45.3-98-6-8.9-17-23.7-21.3-28.5-24.5-27.6-42.8-43.8-68.4-60.6-26.1-17.1-56.8-30.9-88.5-39.7-16-4.5-19.9-5.5-23-6.1-1.6-.2-6.6-1.1-11-2-4.4-.8-10.2-1.8-13-2.2-2.7-.3-5.9-.8-7-1-7.8-1.6-24.5-2.7-45.6-3-13.6-.1-24.8-.1-25 .1z"/><path d="M458.6 482.2c17.2 42.3 41.9 103.8 59.9 148.3 6.4 15.9 12.3 30.4 13.1 32.2.8 1.7 1.4 3.4 1.4 3.7 0 .3.9 2.5 1.9 4.9 1.1 2.3 3.8 8.9 6.1 14.7 2.3 5.8 4.5 10.8 4.8 11.2 1.5 1.5 30.9-14.6 48-26.1 25.1-16.9 52.7-42.2 68.3-62.6 1.3-1.7 2.6-3.2 2.9-3.5 1-.8 11.3-15.1 15.1-21 8.9-13.6 17.9-29.4 17.9-31.4 0-.6-4.9-3.1-10.8-5.5-5.9-2.5-12.9-5.5-15.7-6.7-6.6-2.9-150.4-64-157.5-66.9-8.1-3.3-56.5-23.9-63.3-26.9-3.2-1.4-6.2-2.6-6.6-2.6-.5 0 6 17.2 14.5 38.2z"/></svg>